<?xml version="1.0" encoding="UTF-8"?>
<!--Generator: Apple Native CoreSVG 149-->
<!DOCTYPE svg
PUBLIC "-//W3C//DTD SVG 1.1//EN"
       "http://www.w3.org/Graphics/SVG/1.1/DTD/svg11.dtd">
<svg version="1.1" xmlns="http://www.w3.org/2000/svg" xmlns:xlink="http://www.w3.org/1999/xlink" width="3300" height="2200">
 <!--glyph: "uni1002C6.medium", point size: 100.000000, font version: "Version 16.0d18e1", template writer version: "8"-->
 <g id="Notes">
  <rect height="2200" id="artboard" style="fill:white;opacity:1" width="3300" x="0" y="0"/>
  <line id="" style="fill:none;stroke:black;opacity:1;stroke-width:0.5;" x1="263" x2="3036" y1="292" y2="292"/>
  <text style="stroke:none;fill:black;font-family:-apple-system,&quot;SF Pro Display&quot;,&quot;SF Pro Text&quot;,Helvetica,sans-serif;font-weight:bold;" transform="matrix(1 0 0 1 263 322)">Weight/Scale Variations</text>
  <text style="stroke:none;fill:black;font-family:-apple-system,&quot;SF Pro Display&quot;,&quot;SF Pro Text&quot;,Helvetica,sans-serif;text-anchor:middle;" transform="matrix(1 0 0 1 559.711 322)">Ultralight</text>
  <text style="stroke:none;fill:black;font-family:-apple-system,&quot;SF Pro Display&quot;,&quot;SF Pro Text&quot;,Helvetica,sans-serif;text-anchor:middle;" transform="matrix(1 0 0 1 856.422 322)">Thin</text>
  <text style="stroke:none;fill:black;font-family:-apple-system,&quot;SF Pro Display&quot;,&quot;SF Pro Text&quot;,Helvetica,sans-serif;text-anchor:middle;" transform="matrix(1 0 0 1 1153.13 322)">Light</text>
  <text style="stroke:none;fill:black;font-family:-apple-system,&quot;SF Pro Display&quot;,&quot;SF Pro Text&quot;,Helvetica,sans-serif;text-anchor:middle;" transform="matrix(1 0 0 1 1449.84 322)">Regular</text>
  <text style="stroke:none;fill:black;font-family:-apple-system,&quot;SF Pro Display&quot;,&quot;SF Pro Text&quot;,Helvetica,sans-serif;text-anchor:middle;" transform="matrix(1 0 0 1 1746.56 322)">Medium</text>
  <text style="stroke:none;fill:black;font-family:-apple-system,&quot;SF Pro Display&quot;,&quot;SF Pro Text&quot;,Helvetica,sans-serif;text-anchor:middle;" transform="matrix(1 0 0 1 2043.27 322)">Semibold</text>
  <text style="stroke:none;fill:black;font-family:-apple-system,&quot;SF Pro Display&quot;,&quot;SF Pro Text&quot;,Helvetica,sans-serif;text-anchor:middle;" transform="matrix(1 0 0 1 2339.98 322)">Bold</text>
  <text style="stroke:none;fill:black;font-family:-apple-system,&quot;SF Pro Display&quot;,&quot;SF Pro Text&quot;,Helvetica,sans-serif;text-anchor:middle;" transform="matrix(1 0 0 1 2636.69 322)">Heavy</text>
  <text style="stroke:none;fill:black;font-family:-apple-system,&quot;SF Pro Display&quot;,&quot;SF Pro Text&quot;,Helvetica,sans-serif;text-anchor:middle;" transform="matrix(1 0 0 1 2933.4 322)">Black</text>
  <line id="" style="fill:none;stroke:black;opacity:1;stroke-width:0.5;" x1="263" x2="3036" y1="1903" y2="1903"/>
  <g id="" transform="matrix(1 0 0 1 263 1933)">
   <path d="M9.24805 0.830078C13.5547 0.830078 17.1387-2.74414 17.1387-7.05078C17.1387-11.3574 13.5449-14.9316 9.23828-14.9316C4.94141-14.9316 1.36719-11.3574 1.36719-7.05078C1.36719-2.74414 4.95117 0.830078 9.24805 0.830078ZM9.24805-0.654297C5.70312-0.654297 2.87109-3.49609 2.87109-7.05078C2.87109-10.6055 5.69336-13.4473 9.23828-13.4473C12.793-13.4473 15.6348-10.6055 15.6445-7.05078C15.6543-3.49609 12.8027-0.654297 9.24805-0.654297ZM6.39648-6.31836L8.50586-6.31836L8.50586-4.19922C8.50586-3.75977 8.79883-3.45703 9.22852-3.45703C9.67773-3.45703 9.9707-3.75977 9.9707-4.19922L9.9707-6.31836L12.0996-6.31836C12.5391-6.31836 12.8418-6.61133 12.8418-7.04102C12.8418-7.48047 12.5391-7.7832 12.0996-7.7832L9.9707-7.7832L9.9707-9.89258C9.9707-10.3418 9.67773-10.6445 9.22852-10.6445C8.79883-10.6445 8.50586-10.3418 8.50586-9.89258L8.50586-7.7832L6.39648-7.7832C5.94727-7.7832 5.64453-7.48047 5.64453-7.04102C5.64453-6.61133 5.94727-6.31836 6.39648-6.31836Z"/>
  </g>
  <g id="" transform="matrix(1 0 0 1 281.506 1933)">
   <path d="M11.709 2.91016C17.1582 2.91016 21.6699-1.61133 21.6699-7.05078C21.6699-12.5 17.1484-17.0117 11.6992-17.0117C6.25977-17.0117 1.74805-12.5 1.74805-7.05078C1.74805-1.61133 6.26953 2.91016 11.709 2.91016ZM11.709 1.25C7.09961 1.25 3.41797-2.44141 3.41797-7.05078C3.41797-11.6602 7.08984-15.3516 11.6992-15.3516C16.3086-15.3516 20-11.6602 20.0098-7.05078C20.0195-2.44141 16.3184 1.25 11.709 1.25ZM7.98828-6.23047L10.8789-6.23047L10.8789-3.32031C10.8789-2.83203 11.2109-2.5 11.6895-2.5C12.1777-2.5 12.5195-2.83203 12.5195-3.32031L12.5195-6.23047L15.4297-6.23047C15.918-6.23047 16.25-6.5625 16.25-7.04102C16.25-7.5293 15.918-7.87109 15.4297-7.87109L12.5195-7.87109L12.5195-10.7617C12.5195-11.2695 12.1777-11.6016 11.6895-11.6016C11.2109-11.6016 10.8789-11.2598 10.8789-10.7617L10.8789-7.87109L7.98828-7.87109C7.48047-7.87109 7.14844-7.5293 7.14844-7.04102C7.14844-6.5625 7.49023-6.23047 7.98828-6.23047Z"/>
  </g>
  <g id="" transform="matrix(1 0 0 1 304.924 1933)">
   <path d="M14.9707 5.66406C21.9336 5.66406 27.6953-0.0976562 27.6953-7.05078C27.6953-14.0137 21.9238-19.7754 14.9609-19.7754C8.00781-19.7754 2.25586-14.0137 2.25586-7.05078C2.25586-0.0976562 8.01758 5.66406 14.9707 5.66406ZM14.9707 3.84766C8.93555 3.84766 4.08203-1.01562 4.08203-7.05078C4.08203-13.0957 8.92578-17.9492 14.9609-17.9492C21.0059-17.9492 25.8594-13.0957 25.8691-7.05078C25.8789-1.01562 21.0156 3.84766 14.9707 3.84766ZM10.0586-6.14258L14.0625-6.14258L14.0625-2.12891C14.0625-1.5918 14.4336-1.2207 14.9512-1.2207C15.4883-1.2207 15.8594-1.5918 15.8594-2.12891L15.8594-6.14258L19.8828-6.14258C20.4102-6.14258 20.791-6.51367 20.791-7.03125C20.791-7.56836 20.4199-7.94922 19.8828-7.94922L15.8594-7.94922L15.8594-11.9531C15.8594-12.5098 15.4883-12.8809 14.9512-12.8809C14.4336-12.8809 14.0625-12.5 14.0625-11.9531L14.0625-7.94922L10.0586-7.94922C9.50195-7.94922 9.13086-7.56836 9.13086-7.03125C9.13086-6.51367 9.51172-6.14258 10.0586-6.14258Z"/>
  </g>
  <text style="stroke:none;fill:black;font-family:-apple-system,&quot;SF Pro Display&quot;,&quot;SF Pro Text&quot;,Helvetica,sans-serif;font-weight:bold;" transform="matrix(1 0 0 1 263 1953)">Design Variations</text>
  <text style="stroke:none;fill:black;font-family:-apple-system,&quot;SF Pro Display&quot;,&quot;SF Pro Text&quot;,Helvetica,sans-serif;" transform="matrix(1 0 0 1 263 1971)">Symbols are supported in up to nine weights and three scales.</text>
  <text style="stroke:none;fill:black;font-family:-apple-system,&quot;SF Pro Display&quot;,&quot;SF Pro Text&quot;,Helvetica,sans-serif;" transform="matrix(1 0 0 1 263 1989)">For optimal layout with text and other symbols, vertically align</text>
  <text style="stroke:none;fill:black;font-family:-apple-system,&quot;SF Pro Display&quot;,&quot;SF Pro Text&quot;,Helvetica,sans-serif;" transform="matrix(1 0 0 1 263 2007)">symbols with the adjacent text.</text>
  <line id="" style="fill:none;stroke:#00AEEF;stroke-width:0.5;opacity:1.0;" x1="776" x2="776" y1="1919" y2="1933"/>
  <g id="" transform="matrix(1 0 0 1 776 1933)">
   <path d="M3.31055 0.126953C3.82812 0.126953 4.08203-0.0683594 4.26758-0.605469L5.52734-4.0625L11.2891-4.0625L12.5488-0.605469C12.7344-0.0683594 12.9883 0.126953 13.4961 0.126953C14.0137 0.126953 14.3457-0.185547 14.3457-0.673828C14.3457-0.839844 14.3164-0.986328 14.2383-1.20117L9.6582-13.3887C9.43359-13.9941 9.0332-14.2871 8.4082-14.2871C7.80273-14.2871 7.39258-13.9941 7.17773-13.3984L2.59766-1.19141C2.51953-0.976562 2.49023-0.830078 2.49023-0.664062C2.49023-0.175781 2.80273 0.126953 3.31055 0.126953ZM6.00586-5.53711L8.37891-12.1094L8.42773-12.1094L10.8008-5.53711Z"/>
  </g>
  <line id="" style="fill:none;stroke:#00AEEF;stroke-width:0.5;opacity:1.0;" x1="792.836" x2="792.836" y1="1919" y2="1933"/>
  <text style="stroke:none;fill:black;font-family:-apple-system,&quot;SF Pro Display&quot;,&quot;SF Pro Text&quot;,Helvetica,sans-serif;font-weight:bold;" transform="matrix(1 0 0 1 776 1953)">Margins</text>
  <text style="stroke:none;fill:black;font-family:-apple-system,&quot;SF Pro Display&quot;,&quot;SF Pro Text&quot;,Helvetica,sans-serif;" transform="matrix(1 0 0 1 776 1971)">Leading and trailing margins on the left and right side of each symbol</text>
  <text style="stroke:none;fill:black;font-family:-apple-system,&quot;SF Pro Display&quot;,&quot;SF Pro Text&quot;,Helvetica,sans-serif;" transform="matrix(1 0 0 1 776 1989)">can be adjusted by modifying the x-location of the margin guidelines.</text>
  <text style="stroke:none;fill:black;font-family:-apple-system,&quot;SF Pro Display&quot;,&quot;SF Pro Text&quot;,Helvetica,sans-serif;" transform="matrix(1 0 0 1 776 2007)">Modifications are automatically applied proportionally to all</text>
  <text style="stroke:none;fill:black;font-family:-apple-system,&quot;SF Pro Display&quot;,&quot;SF Pro Text&quot;,Helvetica,sans-serif;" transform="matrix(1 0 0 1 776 2025)">scales and weights.</text>
  <g id="" transform="matrix(1 0 0 1 1289 1933)">
   <path d="M2.8418 1.86523L4.54102 3.57422C5.40039 4.44336 6.38672 4.38477 7.31445 3.35938L17.4902-7.85156C17.7539-7.76367 18.0273-7.7832 18.3398-7.8418L19.4043-8.03711L20.0684-7.36328L20.0293-6.80664C19.9902-6.30859 20.1172-5.92773 20.6055-5.44922L21.3672-4.70703C21.8457-4.22852 22.4609-4.19922 22.9297-4.66797L25.8398-7.58789C26.3086-8.05664 26.2891-8.65234 25.8105-9.13086L25.0391-9.89258C24.5605-10.3711 24.1895-10.5273 23.7109-10.4883L23.1348-10.4395L22.4902-11.0742L22.7344-12.1973C22.8613-12.7637 22.7051-13.2031 22.1191-13.7891L19.9219-15.9766C16.582-19.2969 12.1484-19.2188 9.25781-16.3281C8.83789-15.918 8.80859-15.3418 9.04297-14.9512C9.27734-14.5898 9.73633-14.3555 10.3809-14.5215C11.8457-14.8633 13.3691-14.9219 14.7949-13.9844L14.209-12.5293C14.0137-12.0508 13.9844-11.6504 14.1113-11.2891L3.04688-0.898438C2.06055 0.0195312 1.98242 0.996094 2.8418 1.86523ZM10.752-15.957C13.1836-17.7344 16.4746-17.4316 18.7012-15.2051L21.1328-12.793C21.3672-12.5586 21.4062-12.373 21.3379-12.0312L21.0156-10.5469L22.5195-9.0625L23.5059-9.12109C23.7598-9.13086 23.8379-9.11133 24.0332-8.91602L24.6094-8.33984L22.168-5.89844L21.5918-6.47461C21.3965-6.66992 21.3672-6.74805 21.377-7.01172L21.4453-7.98828L19.9512-9.47266L18.4277-9.21875C18.1055-9.15039 17.959-9.17969 17.7148-9.41406L15.7129-11.416C15.459-11.6504 15.4297-11.8164 15.5859-12.1875L16.4648-14.2773C14.9023-15.7324 12.8711-16.3574 10.8398-15.7617C10.6836-15.7227 10.625-15.8496 10.752-15.957ZM5.27344 2.30469L4.10156 1.14258C3.63281 0.683594 3.74023 0.341797 4.14062-0.0195312L14.9512-10.1953L16.416-8.71094L6.42578 2.27539C6.07422 2.67578 5.74219 2.77344 5.27344 2.30469Z"/>
  </g>
  <text style="stroke:none;fill:black;font-family:-apple-system,&quot;SF Pro Display&quot;,&quot;SF Pro Text&quot;,Helvetica,sans-serif;font-weight:bold;" transform="matrix(1 0 0 1 1289 1953)">Exporting</text>
  <text style="stroke:none;fill:black;font-family:-apple-system,&quot;SF Pro Display&quot;,&quot;SF Pro Text&quot;,Helvetica,sans-serif;" transform="matrix(1 0 0 1 1289 1971)">Symbols should be outlined when exporting to ensure the</text>
  <text style="stroke:none;fill:black;font-family:-apple-system,&quot;SF Pro Display&quot;,&quot;SF Pro Text&quot;,Helvetica,sans-serif;" transform="matrix(1 0 0 1 1289 1989)">design is preserved when submitting to Xcode.</text>
  <text id="template-version" style="stroke:none;fill:black;font-family:-apple-system,&quot;SF Pro Display&quot;,&quot;SF Pro Text&quot;,Helvetica,sans-serif;text-anchor:end;" transform="matrix(1 0 0 1 3036 1933)">Template v.2.0</text>
  <text style="stroke:none;fill:black;font-family:-apple-system,&quot;SF Pro Display&quot;,&quot;SF Pro Text&quot;,Helvetica,sans-serif;text-anchor:end;" transform="matrix(1 0 0 1 3036 1951)">Requires Xcode 12 or greater</text>
  <text style="stroke:none;fill:black;font-family:-apple-system,&quot;SF Pro Display&quot;,&quot;SF Pro Text&quot;,Helvetica,sans-serif;text-anchor:end;" transform="matrix(1 0 0 1 3036 1969)">Generated from star.circle.fill</text>
  <text style="stroke:none;fill:black;font-family:-apple-system,&quot;SF Pro Display&quot;,&quot;SF Pro Text&quot;,Helvetica,sans-serif;text-anchor:end;" transform="matrix(1 0 0 1 3036 1987)">Typeset at 100 points</text>
  <text style="stroke:none;fill:black;font-family:-apple-system,&quot;SF Pro Display&quot;,&quot;SF Pro Text&quot;,Helvetica,sans-serif;" transform="matrix(1 0 0 1 263 726)">Small</text>
  <text style="stroke:none;fill:black;font-family:-apple-system,&quot;SF Pro Display&quot;,&quot;SF Pro Text&quot;,Helvetica,sans-serif;" transform="matrix(1 0 0 1 263 1156)">Medium</text>
  <text style="stroke:none;fill:black;font-family:-apple-system,&quot;SF Pro Display&quot;,&quot;SF Pro Text&quot;,Helvetica,sans-serif;" transform="matrix(1 0 0 1 263 1586)">Large</text>
 </g>
 <g id="Guides">
  <g id="H-reference" style="fill:#27AAE1;stroke:none;" transform="matrix(1 0 0 1 339 696)">
   <path d="M0.976562 0L3.66211 0L12.9883-24.4629L45.752-24.4629L55.127 0L57.7637 0L30.6152-70.459L28.125-70.459ZM29.3457-67.1387L29.4434-67.1387L44.873-26.709L13.8672-26.709Z"/>
  </g>
  <line id="Baseline-S" style="fill:none;stroke:#27AAE1;opacity:1;stroke-width:0.5;" x1="263" x2="3036" y1="696" y2="696"/>
  <line id="Capline-S" style="fill:none;stroke:#27AAE1;opacity:1;stroke-width:0.5;" x1="263" x2="3036" y1="625.541" y2="625.541"/>
  <g id="H-reference" style="fill:#27AAE1;stroke:none;" transform="matrix(1 0 0 1 339 1126)">
   <path d="M0.976562 0L3.66211 0L12.9883-24.4629L45.752-24.4629L55.127 0L57.7637 0L30.6152-70.459L28.125-70.459ZM29.3457-67.1387L29.4434-67.1387L44.873-26.709L13.8672-26.709Z"/>
  </g>
  <line id="Baseline-M" style="fill:none;stroke:#27AAE1;opacity:1;stroke-width:0.5;" x1="263" x2="3036" y1="1126" y2="1126"/>
  <line id="Capline-M" style="fill:none;stroke:#27AAE1;opacity:1;stroke-width:0.5;" x1="263" x2="3036" y1="1055.54" y2="1055.54"/>
  <g id="H-reference" style="fill:#27AAE1;stroke:none;" transform="matrix(1 0 0 1 339 1556)">
   <path d="M0.976562 0L3.66211 0L12.9883-24.4629L45.752-24.4629L55.127 0L57.7637 0L30.6152-70.459L28.125-70.459ZM29.3457-67.1387L29.4434-67.1387L44.873-26.709L13.8672-26.709Z"/>
  </g>
  <line id="Baseline-L" style="fill:none;stroke:#27AAE1;opacity:1;stroke-width:0.5;" x1="263" x2="3036" y1="1556" y2="1556"/>
  <line id="Capline-L" style="fill:none;stroke:#27AAE1;opacity:1;stroke-width:0.5;" x1="263" x2="3036" y1="1485.54" y2="1485.54"/>
  <line id="left-margin" style="fill:none;stroke:#00AEEF;stroke-width:0.5;opacity:1.0;" x1="1391.3" x2="1391.3" y1="1030.79" y2="1150.12"/>
  <line id="right-margin" style="fill:none;stroke:#00AEEF;stroke-width:0.5;opacity:1.0;" x1="1508.39" x2="1508.39" y1="1030.79" y2="1150.12"/>
 </g>
 <g id="Symbols">
  <g id="Black-L" transform="matrix(1 0 0 1 2854.05 1556)">
   <path d="M79.3457 32.8613C116.748 32.8613 147.412 2.19727 147.412-35.2051C147.412-72.6074 116.748-103.271 79.2969-103.271C41.8945-103.271 11.2793-72.6074 11.2793-35.2051C11.2793 2.19727 41.9434 32.8613 79.3457 32.8613ZM62.4512-2.7832C58.1055 0.488281 53.2715-2.63672 55.0781-8.10547L61.7188-27.832L44.7754-40.0391C41.0156-42.7734 41.6992-48.877 47.5586-48.7793L68.4082-48.4863L74.7559-68.4082C76.4648-73.7793 82.0312-73.7793 83.7891-68.4082L90.1367-48.4863L110.986-48.7793C117.041-48.877 117.432-42.7246 113.77-40.0391L96.875-27.8809L103.418-8.10547C105.273-2.39258 100.488 0.439453 96.0938-2.7832L79.2969-15.0879Z"/>
  </g>
  <g id="Heavy-L" transform="matrix(1 0 0 1 2558.39 1556)">
   <path d="M78.2715 31.7871C115.088 31.7871 145.312 1.5625 145.312-35.2051C145.312-72.0215 115.039-102.246 78.2715-102.246C41.4551-102.246 11.2793-72.0215 11.2793-35.2051C11.2793 1.5625 41.5039 31.7871 78.2715 31.7871ZM60.9375-2.58789C56.7871 0.488281 52.2949-2.49023 53.9551-7.61719L60.791-27.9297L43.3594-40.4785C39.7461-43.1152 40.5273-48.7793 45.9961-48.7305L67.4316-48.4863L73.9746-68.9453C75.5859-73.9258 80.8594-73.9258 82.4707-68.9453L89.0137-48.4863L110.449-48.7305C116.064-48.7793 116.602-43.0176 113.086-40.4785L95.7031-27.9785L102.441-7.61719C104.199-2.29492 99.6582 0.439453 95.5566-2.58789L78.2227-15.2344Z"/>
  </g>
  <g id="Bold-L" transform="matrix(1 0 0 1 2262.88 1556)">
   <path d="M77.0996 30.5664C113.232 30.5664 142.92 0.878906 142.92-35.2539C142.92-71.3379 113.184-101.074 77.0508-101.074C40.9668-101.074 11.2793-71.3379 11.2793-35.2539C11.2793 0.878906 41.0156 30.5664 77.0996 30.5664ZM59.1797-2.34375C55.3711 0.537109 51.1719-2.34375 52.7344-7.03125L59.7168-28.0273L41.748-40.9668C38.3301-43.457 39.209-48.7305 44.2383-48.6816L66.3574-48.4375L73.0957-69.5801C74.5605-74.1699 79.541-74.1699 81.0059-69.5801L87.7441-48.4375L109.863-48.6816C115.039-48.7305 115.674-43.3594 112.354-40.9668L94.3848-28.0762L101.367-7.03125C102.93-2.19727 98.7793 0.488281 94.9219-2.34375L77.0508-15.4297Z"/>
  </g>
  <g id="Semibold-L" transform="matrix(1 0 0 1 1966.97 1556)">
   <path d="M76.2695 29.7363C111.914 29.7363 141.309 0.390625 141.309-35.2539C141.309-70.8984 111.865-100.244 76.2695-100.244C40.625-100.244 11.2793-70.8984 11.2793-35.2539C11.2793 0.390625 40.6738 29.7363 76.2695 29.7363ZM58.0078-2.19727C54.3457 0.537109 50.3906-2.24609 51.8555-6.64062L59.0332-28.125L40.625-41.2598C37.3047-43.7012 38.2812-48.6816 43.0176-48.6328L65.5762-48.4375L72.4609-70.0195C73.8281-74.3164 78.6133-74.3164 79.9805-70.0195L86.8652-48.4375L109.473-48.6328C114.307-48.6816 115.039-43.6035 111.816-41.3086L93.457-28.125L100.586-6.64062C102.1-2.14844 98.1445 0.488281 94.4824-2.19727L76.2207-15.5762Z"/>
  </g>
  <g id="Medium-L" transform="matrix(1 0 0 1 1670.87 1556)">
   <path d="M75.6836 29.1504C110.938 29.1504 140.088 0 140.088-35.2539C140.088-70.5078 110.889-99.6582 75.6348-99.6582C40.3809-99.6582 11.2793-70.5078 11.2793-35.2539C11.2793 0 40.3809 29.1504 75.6836 29.1504ZM57.0801-2.09961C53.6133 0.537109 49.8047-2.14844 51.2207-6.34766L58.4473-28.1738L39.7949-41.5039C36.5723-43.8477 37.5977-48.6328 42.0898-48.584L65.0391-48.4375L72.0215-70.3125C73.291-74.4141 77.9297-74.4141 79.1992-70.3125L86.2305-48.4375L109.18-48.584C113.721-48.6328 114.551-43.7988 111.475-41.5527L92.7734-28.1738L100.049-6.34766C101.465-2.09961 97.6562 0.537109 94.1406-2.09961L75.6348-15.625Z"/>
  </g>
  <g id="Regular-L" transform="matrix(1 0 0 1 1374.97 1556)">
   <path d="M74.8535 28.3203C109.668 28.3203 138.477-0.488281 138.477-35.2539C138.477-70.0684 109.619-98.877 74.8047-98.877C40.0391-98.877 11.2793-70.0684 11.2793-35.2539C11.2793-0.488281 40.0879 28.3203 74.8535 28.3203ZM55.9082-1.95312C52.6367 0.537109 49.0723-2.05078 50.3906-6.00586L57.7637-28.2227L38.7207-41.8457C35.5957-44.0918 36.6699-48.584 40.8691-48.5352L64.2578-48.3887L71.4355-70.752C72.6074-74.5605 77.002-74.5605 78.2227-70.752L85.3516-48.3887L108.74-48.5352C113.037-48.584 113.916-43.9941 110.938-41.8945L91.8945-28.2227L99.2676-6.00586C100.586-2.05078 97.0215 0.537109 93.7012-1.95312L74.8047-15.7715Z"/>
  </g>
  <g id="Light-L" transform="matrix(1 0 0 1 1079.18 1556)">
   <path d="M73.9258 27.3926C108.301 27.3926 136.621-0.927734 136.621-35.2539C136.621-69.6289 108.252-97.9492 73.9258-97.9492C39.5508-97.9492 11.2793-69.6289 11.2793-35.2539C11.2793-0.927734 39.5996 27.3926 73.9258 27.3926ZM54.6875-2.39258C52.0508-0.390625 49.0723-2.39258 50.1953-5.66406L57.6172-28.3203L38.2812-42.1387C35.7422-43.9453 36.7188-47.6562 40.0391-47.6562L63.8672-47.5586L71.0938-70.2148C72.0703-73.291 75.7324-73.291 76.709-70.2148L83.9355-47.5586L107.764-47.6562C111.182-47.6562 111.865-43.7988 109.57-42.1875L90.1855-28.3203L97.6562-5.66406C98.7793-2.39258 95.8008-0.390625 93.1152-2.39258L73.877-16.4062Z"/>
  </g>
  <g id="Thin-L" transform="matrix(1 0 0 1 783.693 1556)">
   <path d="M72.7051 26.1719C106.494 26.1719 134.18-1.51367 134.18-35.2539C134.18-69.043 106.494-96.7285 72.7051-96.7285C38.9648-96.7285 11.2793-69.043 11.2793-35.2539C11.2793-1.51367 38.9648 26.1719 72.7051 26.1719ZM53.0273-2.92969C51.2695-1.66016 49.1211-2.88086 49.9023-5.27344L57.373-28.418L37.6953-42.4805C35.9863-43.75 36.7188-46.4355 38.9648-46.4355L63.2812-46.4355L70.7031-69.5312C71.3379-71.582 74.0234-71.582 74.6582-69.5312L82.1289-46.4355L106.445-46.4355C108.789-46.4355 109.131-43.5547 107.764-42.5781L87.9883-28.418L95.5566-5.27344C96.3379-2.88086 94.1895-1.66016 92.3828-2.92969L72.7051-17.2852Z"/>
  </g>
  <g id="Ultralight-L" transform="matrix(1 0 0 1 487.616 1556)">
   <path d="M72.1191 25.5371C105.566 25.5371 132.91-1.80664 132.91-35.2539C132.91-68.75 105.566-96.0938 72.1191-96.0938C38.623-96.0938 11.2793-68.75 11.2793-35.2539C11.2793-1.80664 38.623 25.5371 72.1191 25.5371ZM52.1973-3.22266C50.8789-2.29492 49.1211-3.125 49.8047-5.07812L57.2754-28.4668L37.4023-42.6758C36.084-43.6523 36.7676-45.8008 38.4277-45.8496L62.9883-45.8496L70.5078-69.1895C70.9961-70.7031 73.1445-70.7031 73.6328-69.1895L81.1523-45.8496L105.762-45.8496C107.568-45.8008 107.715-43.4082 106.836-42.7734L86.8652-28.4668L94.4336-5.07812C95.1172-3.125 93.3594-2.29492 91.9434-3.22266L72.0703-17.7246Z"/>
  </g>
  <g id="Black-M" transform="matrix(1 0 0 1 2870.97 1126)">
   <path d="M62.4023 18.457C91.9922 18.457 116.113-5.61523 116.113-35.2051C116.113-64.7949 91.9922-88.8672 62.4023-88.8672C32.8125-88.8672 8.74023-64.7949 8.74023-35.2051C8.74023-5.61523 32.8125 18.457 62.4023 18.457ZM49.8535-10.5469C46.4844-8.05664 42.6758-10.3516 44.0918-14.7461L49.0234-29.3945L36.4258-38.5254C33.5938-40.5762 33.9844-45.4102 38.5742-45.3125L54.1016-45.0684L58.8379-59.9121C60.2051-64.1602 64.502-64.1602 65.8691-59.9121L70.6543-45.0684L86.2305-45.3125C91.0156-45.4102 91.0645-40.5273 88.3301-38.5254L75.7812-29.4434L80.6152-14.7461C82.1289-10.1074 78.3203-8.1543 74.9512-10.5469L62.4023-19.7754Z"/>
  </g>
  <g id="Heavy-M" transform="matrix(1 0 0 1 2575.19 1126)">
   <path d="M61.5234 17.5293C90.5273 17.5293 114.258-6.20117 114.258-35.2051C114.258-64.2578 90.5273-87.9883 61.4746-87.9883C32.4707-87.9883 8.74023-64.2578 8.74023-35.2051C8.74023-6.20117 32.4707 17.5293 61.5234 17.5293ZM48.4863-10.2539C45.2148-7.8125 41.5527-10.1074 42.9199-14.2578L48.0469-29.4922L34.9609-38.916C32.1777-40.9668 32.666-45.5566 37.0605-45.5078L53.1738-45.2637L58.0566-60.6445C59.375-64.6973 63.5254-64.6973 64.8438-60.6445L69.7754-45.2637L85.8887-45.5078C90.4297-45.5566 90.6738-40.918 87.9395-38.916L74.9023-29.541L79.9805-14.2578C81.3965-9.91211 77.7344-7.86133 74.4629-10.2539L61.4746-19.7754Z"/>
  </g>
  <g id="Bold-M" transform="matrix(1 0 0 1 2279.5 1126)">
   <path d="M60.498 16.5039C88.8672 16.5039 112.207-6.83594 112.207-35.2051C112.207-63.623 88.8672-86.9629 60.4492-86.9629C32.0312-86.9629 8.74023-63.623 8.74023-35.2051C8.74023-6.83594 32.0801 16.5039 60.498 16.5039ZM46.9238-9.86328C43.7988-7.51953 40.332-9.81445 41.6504-13.7207L46.9238-29.5898L33.3496-39.3555C30.5664-41.4062 31.2012-45.752 35.3516-45.7031L52.0996-45.5078L57.1777-61.4746C58.3984-65.2832 62.4512-65.2832 63.6719-61.4746L68.7988-45.5078L85.5469-45.7031C89.8438-45.752 90.2344-41.3574 87.5488-39.3555L73.9746-29.5898L79.248-13.7207C80.5664-9.7168 77.0996-7.56836 73.9746-9.86328L60.4492-19.7754Z"/>
  </g>
  <g id="Semibold-M" transform="matrix(1 0 0 1 1983.5 1126)">
   <path d="M59.7656 15.8203C87.7441 15.8203 110.791-7.27539 110.791-35.2539C110.791-63.2324 87.6953-86.2793 59.7656-86.2793C31.7871-86.2793 8.74023-63.2324 8.74023-35.2539C8.74023-7.27539 31.7871 15.8203 59.7656 15.8203ZM45.8984-9.61914C42.8223-7.32422 39.502-9.61914 40.7227-13.3789L46.1914-29.6387L32.2266-39.6484C29.4434-41.6992 30.1758-45.8984 34.1797-45.8496L51.3672-45.6543L56.5918-62.0605C57.7637-65.7227 61.7188-65.7227 62.8906-62.0605L68.1152-45.6543L85.3027-45.8496C89.4043-45.8984 89.9414-41.6504 87.2559-39.6973L73.291-29.6875L78.7598-13.3789C79.9805-9.57031 76.6602-7.32422 73.584-9.61914L59.7168-19.7754Z"/>
  </g>
  <g id="Medium-M" transform="matrix(1 0 0 1 1687.3 1126)">
   <path d="M59.2285 15.2344C86.9141 15.2344 109.766-7.61719 109.766-35.2539C109.766-62.8906 86.8652-85.7422 59.1797-85.7422C31.543-85.7422 8.74023-62.8906 8.74023-35.2539C8.74023-7.61719 31.5918 15.2344 59.2285 15.2344ZM45.0684-9.47266C42.0898-7.17773 38.8184-9.47266 40.0391-13.0859L45.6055-29.6875L31.3477-39.8926C28.6133-41.8945 29.3945-45.9961 33.3008-45.9473L50.7812-45.752L56.1035-62.5C57.2266-66.0156 61.1328-66.0156 62.2559-62.5L67.627-45.752L85.1074-45.9473C89.0625-45.9961 89.7461-41.8457 87.0605-39.8926L72.8027-29.7363L78.3691-13.0859C79.5898-9.42383 76.3184-7.17773 73.291-9.47266L59.1797-19.7754Z"/>
  </g>
  <g id="Regular-M" transform="matrix(1 0 0 1 1391.3 1126)">
   <path d="M58.5449 14.5508C85.791 14.5508 108.35-8.05664 108.35-35.2539C108.35-62.5 85.7422-85.0586 58.4961-85.0586C31.2988-85.0586 8.74023-62.5 8.74023-35.2539C8.74023-8.05664 31.3477 14.5508 58.5449 14.5508ZM44.043-9.22852C41.1133-6.98242 37.9883-9.27734 39.1602-12.7441L44.8242-29.7852L30.2246-40.1855C27.4902-42.1875 28.418-46.0938 32.1289-46.0449L50.0488-45.8984L55.5176-63.0371C56.5918-66.4062 60.4004-66.4062 61.4746-63.0371L66.9434-45.8984L84.8633-46.0449C88.623-46.0938 89.4531-42.1387 86.7676-40.2344L72.168-29.7852L77.8809-12.7441C79.0039-9.27734 75.9277-6.98242 72.9492-9.22852L58.4961-19.7754Z"/>
  </g>
  <g id="Light-M" transform="matrix(1 0 0 1 1095.42 1126)">
   <path d="M57.7148 13.7207C84.5215 13.7207 106.689-8.44727 106.689-35.2539C106.689-62.1094 84.5215-84.2285 57.666-84.2285C30.8594-84.2285 8.74023-62.1094 8.74023-35.2539C8.74023-8.44727 30.9082 13.7207 57.7148 13.7207ZM42.9199-9.57031C40.5762-7.8125 38.0371-9.61914 38.9648-12.4512L44.6777-29.834L29.834-40.4297C27.6367-42.041 28.418-45.2637 31.3965-45.2637L49.6582-45.166L55.2246-62.5977C56.1035-65.2832 59.2773-65.2832 60.1074-62.5977L65.6738-45.166L83.9355-45.2637C87.0117-45.2637 87.5977-41.9922 85.5469-40.4785L70.6543-29.834L76.416-12.4512C77.3438-9.61914 74.8047-7.8125 72.4121-9.57031L57.666-20.3613Z"/>
  </g>
  <g id="Thin-M" transform="matrix(1 0 0 1 799.806 1126)">
   <path d="M56.6406 12.5977C82.9102 12.5977 104.492-8.98438 104.492-35.2539C104.492-61.5723 82.9102-83.1543 56.5918-83.1543C30.3223-83.1543 8.74023-61.5723 8.74023-35.2539C8.74023-8.98438 30.3223 12.5977 56.6406 12.5977ZM41.4551-10.1074C39.8926-8.93555 38.0371-10.0586 38.7207-12.1094L44.5312-29.9316L29.3457-40.7715C27.832-41.8945 28.4668-44.1895 30.4199-44.1895L49.1699-44.1406L54.8828-61.9629C55.4688-63.7695 57.7148-63.7695 58.3008-61.9629L64.0137-44.1406L82.7637-44.1895C84.8145-44.1895 85.1562-41.748 83.8867-40.8203L68.6523-29.9316L74.5117-12.1094C75.1953-10.0586 73.3398-8.93555 71.7285-10.1074L56.5918-21.1426Z"/>
  </g>
  <g id="Ultralight-M" transform="matrix(1 0 0 1 503.656 1126)">
   <path d="M56.0547 12.0605C82.0801 12.0605 103.369-9.22852 103.369-35.2539C103.369-61.2793 82.0801-82.5684 56.0547-82.5684C30.0293-82.5684 8.74023-61.2793 8.74023-35.2539C8.74023-9.22852 30.0293 12.0605 56.0547 12.0605ZM40.6738-10.3516C39.5508-9.52148 38.0859-10.3027 38.623-11.9141L44.4336-29.9805L29.0527-40.9668C27.9297-41.7969 28.4668-43.6523 29.9316-43.6523L48.877-43.6523L54.6875-61.6699C55.127-62.9883 56.9336-62.9883 57.373-61.6699L63.1836-43.6523L82.1289-43.6523C83.7402-43.6523 83.8867-41.6016 83.0566-41.0156L67.6758-29.9805L73.5352-11.9141C74.0723-10.3027 72.6074-9.52148 71.3867-10.3516L56.0547-21.5332Z"/>
  </g>
  <g id="Black-S" transform="matrix(1 0 0 1 2884.57 696)">
   <path d="M48.8281 6.78711C71.9727 6.78711 90.8203-12.0605 90.8203-35.2051C90.8203-58.3496 71.9727-77.1973 48.8281-77.1973C25.6836-77.1973 6.83594-58.3496 6.83594-35.2051C6.83594-12.0605 25.6836 6.78711 48.8281 6.78711ZM38.9648-15.8691C36.3281-13.916 33.3496-15.7227 34.4727-19.1406L38.3301-30.6641L28.418-37.8418C26.2207-39.4531 26.5137-43.2129 30.127-43.1641L42.334-42.9688L46.0449-54.6387C47.1191-57.959 50.4883-57.959 51.5625-54.6387L55.3223-42.9688L67.5293-43.1641C71.2891-43.2129 71.3379-39.4043 69.1895-37.8418L59.3262-30.7129L63.1348-19.1406C64.3066-15.5273 61.3281-13.9648 58.6914-15.8691L48.8281-23.0957Z"/>
  </g>
  <g id="Heavy-S" transform="matrix(1 0 0 1 2588.47 696)">
   <path d="M48.2422 6.15234C70.9961 6.15234 89.5996-12.4512 89.5996-35.2051C89.5996-57.959 70.9961-76.6113 48.1934-76.6113C25.4395-76.6113 6.83594-57.959 6.83594-35.2051C6.83594-12.4512 25.4395 6.15234 48.2422 6.15234ZM38.0371-15.5762C35.4492-13.623 32.5195-15.4785 33.5938-18.7988L37.5977-30.7129L27.3438-38.1348C25.0977-39.7461 25.5371-43.457 29.0527-43.4082L41.6504-43.2129L45.5078-55.2734C46.5332-58.4961 49.9023-58.4961 50.9277-55.2734L54.7852-43.2129L67.3828-43.4082C71.0449-43.457 71.2402-39.6973 69.043-38.1348L58.8379-30.7617L62.793-18.7988C63.916-15.332 61.0352-13.6719 58.3984-15.5762L48.2422-23.0469Z"/>
  </g>
  <g id="Bold-S" transform="matrix(1 0 0 1 2292.44 696)">
   <path d="M47.5586 5.46875C69.873 5.46875 88.2324-12.8906 88.2324-35.2539C88.2324-57.5684 69.873-75.9277 47.5098-75.9277C25.1953-75.9277 6.83594-57.5684 6.83594-35.2539C6.83594-12.8906 25.1953 5.46875 47.5586 5.46875ZM37.0117-15.2832C34.375-13.2812 31.543-15.2344 32.6172-18.457L36.7676-30.8105L26.1719-38.4277C23.8281-40.0879 24.3652-43.7012 27.832-43.6523L40.8691-43.457L44.8242-55.957C45.8496-59.082 49.1699-59.082 50.1953-55.957L54.1992-43.457L67.2363-43.6523C70.752-43.7012 71.1426-40.0879 68.8965-38.4277L58.3008-30.8105L62.4023-18.457C63.5254-15.1367 60.6445-13.3301 58.0566-15.2832L47.5098-22.9492Z"/>
  </g>
  <g id="Semibold-S" transform="matrix(1 0 0 1 1996.2 696)">
   <path d="M47.0703 4.98047C69.0918 4.98047 87.3047-13.1836 87.3047-35.2539C87.3047-57.2754 69.0918-75.4883 47.0215-75.4883C25-75.4883 6.83594-57.2754 6.83594-35.2539C6.83594-13.1836 25.0488 4.98047 47.0703 4.98047ZM36.2793-15.0391C33.6914-13.0859 30.9082-15.0391 31.9336-18.1641L36.1816-30.8594L25.3418-38.623C22.998-40.332 23.584-43.8477 27.002-43.7988L40.332-43.6523L44.3848-56.4453C45.3613-59.5215 48.6816-59.5215 49.707-56.4453L53.7598-43.6523L67.0898-43.7988C70.5566-43.8477 71.0938-40.332 68.75-38.623L57.9102-30.8594L62.1582-18.1641C63.1836-14.9902 60.4004-13.0859 57.8125-15.0391L47.0703-22.9004Z"/>
  </g>
  <g id="Medium-S" transform="matrix(1 0 0 1 1699.83 696)">
   <path d="M46.7285 4.63867C68.5547 4.63867 86.6211-13.4277 86.6211-35.2539C86.6211-57.0801 68.5059-75.1465 46.6797-75.1465C24.8535-75.1465 6.83594-57.0801 6.83594-35.2539C6.83594-13.4277 24.9023 4.63867 46.7285 4.63867ZM35.7422-14.8926C33.1543-12.8906 30.3711-14.9414 31.3965-17.9688L35.7422-30.8594L24.707-38.8184C22.3145-40.5273 22.998-43.9941 26.3672-43.9453L39.9414-43.7988L44.043-56.7871C45.0195-59.8145 48.3398-59.8145 49.3164-56.7871L53.418-43.7988L66.9922-43.9453C70.4102-43.9941 71.0449-40.4785 68.6523-38.8184L57.6172-30.8594L61.9629-17.9688C62.9883-14.8926 60.2051-12.8906 57.6172-14.8926L46.6797-22.9004Z"/>
  </g>
  <g id="Regular-S" transform="matrix(1 0 0 1 1403.58 696)">
   <path d="M46.2402 4.15039C67.7734 4.15039 85.6934-13.7207 85.6934-35.2539C85.6934-56.7871 67.7246-74.6582 46.1914-74.6582C24.707-74.6582 6.83594-56.7871 6.83594-35.2539C6.83594-13.7207 24.7559 4.15039 46.2402 4.15039ZM35.0098-14.6484C32.4219-12.6953 29.7363-14.7461 30.7129-17.7246L35.1562-30.9082L23.877-39.0137C21.4355-40.7715 22.2168-44.1406 25.5371-44.0918L39.4043-43.9941L43.6035-57.2754C44.5312-60.2051 47.8516-60.2051 48.8281-57.2754L53.0273-43.9941L66.8945-44.0918C70.2148-44.1406 70.9473-40.7227 68.5547-39.0137L57.2266-30.9082L61.6699-17.7246C62.6953-14.7461 59.9609-12.6953 57.373-14.6484L46.1914-22.8516Z"/>
  </g>
  <g id="Light-S" transform="matrix(1 0 0 1 1107.6 696)">
   <path d="M45.5078 3.41797C66.6992 3.41797 84.2285-14.0625 84.2285-35.2539C84.2285-56.4453 66.6504-73.9258 45.5078-73.9258C24.3164-73.9258 6.83594-56.4453 6.83594-35.2539C6.83594-14.0625 24.3652 3.41797 45.5078 3.41797ZM34.0332-14.9902C31.9824-13.4277 29.7852-15.0391 30.5664-17.4805L35.0586-30.957L23.5352-39.209C21.582-40.625 22.2656-43.4082 24.8535-43.4082L39.0625-43.3105L43.3594-56.8359C44.1406-59.2285 46.875-59.2285 47.6074-56.8359L51.9531-43.3105L66.1133-43.4082C68.75-43.4082 69.3359-40.5762 67.4805-39.2578L55.9082-30.957L60.4004-17.4805C61.2305-15.0391 59.0332-13.4277 56.9336-14.9902L45.5078-23.3398Z"/>
  </g>
  <g id="Thin-S" transform="matrix(1 0 0 1 811.867 696)">
   <path d="M44.5801 2.49023C65.2832 2.49023 82.2754-14.5508 82.2754-35.2539C82.2754-55.957 65.2344-72.998 44.5312-72.998C23.8281-72.998 6.83594-55.957 6.83594-35.2539C6.83594-14.5508 23.877 2.49023 44.5801 2.49023ZM32.7637-15.4297C31.3965-14.4043 29.834-15.4297 30.4199-17.1875L34.9121-31.0547L23.0957-39.502C21.7773-40.4785 22.3145-42.4805 24.0234-42.4316L38.623-42.4316L43.0664-56.2988C43.5547-57.8613 45.5078-57.8613 46.0449-56.2988L50.4883-42.4316L65.0879-42.4316C66.8945-42.4805 67.1875-40.3809 66.0645-39.5508L54.1992-31.0547L58.7402-17.1875C59.3262-15.4297 57.7637-14.4043 56.3477-15.4297L44.5312-24.0234Z"/>
  </g>
  <g id="Ultralight-S" transform="matrix(1 0 0 1 515.644 696)">
   <path d="M44.043 1.95312C64.502 1.95312 81.2988-14.7949 81.2988-35.2539C81.2988-55.7129 64.502-72.4609 44.043-72.4609C23.584-72.4609 6.83594-55.7129 6.83594-35.2539C6.83594-14.7949 23.584 1.95312 44.043 1.95312ZM32.0801-15.6738C31.1035-14.9414 29.834-15.625 30.3223-17.041L34.8633-31.1035L22.8516-39.6484C21.875-40.3809 22.3145-41.9434 23.584-41.9434L38.3789-41.9434L42.9199-56.0059C43.3105-57.1777 44.8242-57.1777 45.2148-56.0059L49.7559-41.9434L64.5508-41.9434C65.918-41.9434 66.0645-40.2832 65.332-39.6973L53.2715-31.1035L57.8613-17.041C58.3496-15.625 57.0801-14.9414 56.0547-15.6738L44.0918-24.3652Z"/>
  </g>
 </g>
</svg>
